Normalized EMG Linear Envelopes
nRows=43
nColumns=17

endheader
time	        VM	        VL	        RF	       GRA	        TA	   ADDLONG	   SEMIMEM	      BFLH	        GM	        GL	       TFL	   GLUTMAX	   GLUTMED	      PIRI	    OBTINT	        QF	
2.605	  0.046869	  0.035202	  0.160002	  0.050804	  0.161037	  0.071299	  0.003400	  0.013766	  0.012170	  0.015059	  0.031697	  0.033081	  0.140281	  0.874240	  1.338031	  0.072382	
2.6055	  0.047043	  0.035119	  0.160057	  0.050688	  0.160578	  0.071570	  0.003041	  0.013118	  0.012019	  0.014923	  0.031194	  0.032563	  0.140185	  0.880718	  1.348615	  0.072748	
2.606	  0.047224	  0.035036	  0.160129	  0.050574	  0.160111	  0.071828	  0.002696	  0.012487	  0.011870	  0.014788	  0.030705	  0.032050	  0.140089	  0.887029	  1.359166	  0.073125	
2.6065	  0.047413	  0.034953	  0.160218	  0.050462	  0.159636	  0.072075	  0.002368	  0.011873	  0.011723	  0.014654	  0.030229	  0.031542	  0.139993	  0.893167	  1.369674	  0.073513	
2.607	  0.047609	  0.034871	  0.160324	  0.050351	  0.159153	  0.072310	  0.002055	  0.011277	  0.011579	  0.014520	  0.029768	  0.031040	  0.139896	  0.899126	  1.380130	  0.073913	
2.6075	  0.047813	  0.034788	  0.160446	  0.050241	  0.158661	  0.072532	  0.001757	  0.010699	  0.011437	  0.014386	  0.029320	  0.030545	  0.139799	  0.904901	  1.390525	  0.074325	
2.608	  0.048024	  0.034706	  0.160585	  0.050132	  0.158161	  0.072742	  0.001477	  0.010139	  0.011297	  0.014254	  0.028885	  0.030056	  0.139700	  0.910484	  1.400847	  0.074748	
2.6085	  0.048242	  0.034624	  0.160739	  0.050025	  0.157652	  0.072939	  0.001213	  0.009599	  0.011161	  0.014122	  0.028463	  0.029574	  0.139600	  0.915871	  1.411088	  0.075184	
2.609	  0.048467	  0.034543	  0.160909	  0.049918	  0.157134	  0.073123	  0.000966	  0.009078	  0.011027	  0.013992	  0.028053	  0.029099	  0.139498	  0.921058	  1.421238	  0.075634	
2.6095	  0.048701	  0.034461	  0.161094	  0.049812	  0.156607	  0.073295	  0.000737	  0.008577	  0.010897	  0.013862	  0.027657	  0.028632	  0.139394	  0.926037	  1.431286	  0.076096	
2.61	  0.048941	  0.034380	  0.161293	  0.049708	  0.156070	  0.073454	  0.000526	  0.008096	  0.010770	  0.013734	  0.027272	  0.028173	  0.139287	  0.930806	  1.441224	  0.076572	
2.6105	  0.049189	  0.034300	  0.161506	  0.049604	  0.155524	  0.073601	  0.000333	  0.007636	  0.010646	  0.013606	  0.026900	  0.027722	  0.139178	  0.935357	  1.451041	  0.077062	
2.611	  0.049444	  0.034219	  0.161733	  0.049502	  0.154967	  0.073735	  0.000158	  0.007198	  0.010526	  0.013480	  0.026539	  0.027280	  0.139064	  0.939686	  1.460726	  0.077566	
2.6115	  0.049707	  0.034139	  0.161972	  0.049400	  0.154400	  0.073856	  0.000003	  0.006781	  0.010411	  0.013356	  0.026190	  0.026847	  0.138947	  0.943787	  1.470272	  0.078084	
2.612	  0.049977	  0.034059	  0.162224	  0.049299	  0.153824	  0.073964	  0.000000	  0.006387	  0.010299	  0.013233	  0.025851	  0.026422	  0.138826	  0.947655	  1.479666	  0.078617	
2.6125	  0.050254	  0.033979	  0.162488	  0.049200	  0.153238	  0.074059	  0.000000	  0.006015	  0.010192	  0.013111	  0.025524	  0.026008	  0.138700	  0.951282	  1.488900	  0.079165	
2.613	  0.050539	  0.033900	  0.162763	  0.049101	  0.152641	  0.074142	  0.000000	  0.005666	  0.010089	  0.012991	  0.025207	  0.025603	  0.138569	  0.954664	  1.497965	  0.079728	
2.6135	  0.050831	  0.033820	  0.163049	  0.049003	  0.152035	  0.074212	  0.000000	  0.005341	  0.009991	  0.012872	  0.024900	  0.025208	  0.138433	  0.957795	  1.506849	  0.080307	
2.614	  0.051129	  0.033741	  0.163345	  0.048906	  0.151420	  0.074269	  0.000000	  0.005040	  0.009898	  0.012755	  0.024603	  0.024823	  0.138291	  0.960668	  1.515546	  0.080902	
2.6145	  0.051435	  0.033661	  0.163651	  0.048810	  0.150795	  0.074314	  0.000000	  0.004764	  0.009810	  0.012640	  0.024316	  0.024449	  0.138144	  0.963280	  1.524045	  0.081513	
2.615	  0.051748	  0.033582	  0.163967	  0.048715	  0.150160	  0.074345	  0.000000	  0.004513	  0.009727	  0.012527	  0.024038	  0.024086	  0.137991	  0.965624	  1.532338	  0.082141	
2.6155	  0.052068	  0.033502	  0.164291	  0.048621	  0.149516	  0.074365	  0.000000	  0.004287	  0.009650	  0.012415	  0.023769	  0.023735	  0.137832	  0.967697	  1.540417	  0.082786	
2.616	  0.052394	  0.033422	  0.164623	  0.048527	  0.148862	  0.074372	  0.000000	  0.004088	  0.009579	  0.012305	  0.023508	  0.023394	  0.137667	  0.969494	  1.548275	  0.083447	
2.6165	  0.052727	  0.033342	  0.164962	  0.048435	  0.148198	  0.074366	  0.000000	  0.003915	  0.009513	  0.012197	  0.023256	  0.023066	  0.137495	  0.971011	  1.555901	  0.084126	
2.617	  0.053066	  0.033261	  0.165308	  0.048343	  0.147526	  0.074348	  0.000000	  0.003769	  0.009453	  0.012091	  0.023011	  0.022750	  0.137316	  0.972247	  1.563289	  0.084823	
2.6175	  0.053412	  0.033180	  0.165661	  0.048252	  0.146844	  0.074318	  0.000000	  0.003651	  0.009400	  0.011987	  0.022774	  0.022446	  0.137130	  0.973199	  1.570430	  0.085538	
2.618	  0.053763	  0.033098	  0.166019	  0.048161	  0.146154	  0.074276	  0.000000	  0.003561	  0.009353	  0.011885	  0.022545	  0.022154	  0.136938	  0.973865	  1.577316	  0.086271	
2.6185	  0.054121	  0.033015	  0.166381	  0.048072	  0.145455	  0.074223	  0.000083	  0.003499	  0.009313	  0.011785	  0.022323	  0.021875	  0.136738	  0.974247	  1.583941	  0.087022	
2.619	  0.054484	  0.032932	  0.166748	  0.047983	  0.144748	  0.074157	  0.000268	  0.003467	  0.009280	  0.011687	  0.022107	  0.021610	  0.136530	  0.974345	  1.590299	  0.087792	
2.6195	  0.054853	  0.032848	  0.167119	  0.047895	  0.144034	  0.074080	  0.000479	  0.003464	  0.009253	  0.011592	  0.021898	  0.021358	  0.136315	  0.974160	  1.596385	  0.088582	
2.62	  0.055227	  0.032763	  0.167492	  0.047809	  0.143312	  0.073991	  0.000716	  0.003492	  0.009234	  0.011498	  0.021695	  0.021119	  0.136091	  0.973694	  1.602195	  0.089390	
2.6205	  0.055605	  0.032677	  0.167868	  0.047723	  0.142585	  0.073892	  0.000981	  0.003550	  0.009222	  0.011407	  0.021497	  0.020894	  0.135860	  0.972951	  1.607724	  0.090218	
2.621	  0.055989	  0.032590	  0.168246	  0.047639	  0.141852	  0.073781	  0.001274	  0.003639	  0.009218	  0.011317	  0.021306	  0.020684	  0.135619	  0.971931	  1.612971	  0.091066	
2.6215	  0.056377	  0.032502	  0.168625	  0.047557	  0.141113	  0.073659	  0.001595	  0.003760	  0.009221	  0.011230	  0.021120	  0.020488	  0.135370	  0.970637	  1.617932	  0.091934	
2.622	  0.056770	  0.032413	  0.169004	  0.047476	  0.140369	  0.073527	  0.001946	  0.003913	  0.009232	  0.011145	  0.020940	  0.020306	  0.135111	  0.969071	  1.622606	  0.092822	
2.6225	  0.057166	  0.032323	  0.169383	  0.047396	  0.139621	  0.073384	  0.002325	  0.004098	  0.009251	  0.011063	  0.020765	  0.020140	  0.134842	  0.967236	  1.626991	  0.093730	
2.623	  0.057566	  0.032231	  0.169761	  0.047319	  0.138868	  0.073230	  0.002734	  0.004317	  0.009279	  0.010983	  0.020595	  0.019988	  0.134564	  0.965136	  1.631085	  0.094659	
2.6235	  0.057970	  0.032139	  0.170137	  0.047243	  0.138112	  0.073066	  0.003174	  0.004570	  0.009315	  0.010905	  0.020430	  0.019852	  0.134277	  0.962775	  1.634885	  0.095609	
2.624	  0.058376	  0.032045	  0.170511	  0.047170	  0.137352	  0.072891	  0.003645	  0.004857	  0.009360	  0.010829	  0.020270	  0.019732	  0.133979	  0.960157	  1.638389	  0.096580	
2.6245	  0.058786	  0.031949	  0.170881	  0.047098	  0.136590	  0.072706	  0.004147	  0.005179	  0.009413	  0.010756	  0.020114	  0.019628	  0.133673	  0.957288	  1.641595	  0.097573	
2.625	  0.059198	  0.031853	  0.171248	  0.047028	  0.135824	  0.072511	  0.004681	  0.005535	  0.009476	  0.010685	  0.019963	  0.019539	  0.133357	  0.954175	  1.644498	  0.098586	
2.6255	  0.059612	  0.031754	  0.171611	  0.046961	  0.135056	  0.072306	  0.005247	  0.005928	  0.009547	  0.010616	  0.019816	  0.019468	  0.133032	  0.950825	  1.647096	  0.099621	
2.626	  0.060027	  0.031654	  0.171968	  0.046896	  0.134285	  0.072090	  0.005846	  0.006357	  0.009629	  0.010550	  0.019674	  0.019412	  0.132699	  0.947245	  1.649386	  0.100678	
